<svg width="16" height="18" viewBox="0 0 16 18" fill="none" xmlns="http://www.w3.org/2000/svg">
<path d="M8 1L1 4L8 7L15 4L8 1Z" stroke="#036613" stroke-width="2" stroke-linejoin="round"/>
<path fill-rule="evenodd" clip-rule="evenodd" d="M3.02545 7.04401L0.606081 8.08088C0.238397 8.23846 0 8.59999 0 9.00002C0 9.40005 0.238397 9.76159 0.606081 9.91917L7.60608 12.9192C7.85763 13.027 8.14237 13.027 8.39392 12.9192L15.3939 9.91917C15.7616 9.76159 16 9.40005 16 9.00002C16 8.59999 15.7616 8.23846 15.3939 8.08088L12.9746 7.04401L10.436 8.13197L12.4614 9.00002L8 10.9121L3.53859 9.00002L5.56404 8.13197L3.02545 7.04401Z" fill="#036613"/>
<path fill-rule="evenodd" clip-rule="evenodd" d="M3.02545 12.044L0.606081 13.0809C0.238397 13.2385 0 13.6 0 14C0 14.4001 0.238397 14.7616 0.606081 14.9192L7.60608 17.9192C7.85763 18.027 8.14237 18.027 8.39392 17.9192L15.3939 14.9192C15.7616 14.7616 16 14.4001 16 14C16 13.6 15.7616 13.2385 15.3939 13.0809L12.9746 12.044L10.436 13.132L12.4614 14L8 15.9121L3.53859 14L5.56404 13.132L3.02545 12.044Z" fill="#036613"/>
</svg>
