<svg width="20" height="20" viewBox="0 0 20 20" fill="none" xmlns="http://www.w3.org/2000/svg">
<circle cx="14.5" cy="6.5" r="1.5" fill="#9F9F9F"/>
<path d="M1 11V9C1 5.22876 1 3.34315 2.17157 2.17157C3.34315 1 5.22876 1 9 1H11C14.7712 1 16.6569 1 17.8284 2.17157C19 3.34315 19 5.22876 19 9V11C19 14.7712 19 16.6569 17.8284 17.8284C16.6569 19 14.7712 19 11 19H10" stroke="#9F9F9F" stroke-width="2"/>
<path fill-rule="evenodd" clip-rule="evenodd" d="M16.9997 11.5853L16.7569 11.3424L16.7422 11.3277C16.6785 11.2641 16.6249 11.2104 16.5777 11.167C15.1476 9.85301 12.8649 10.2235 11.9237 11.9223C11.8926 11.9784 11.8588 12.0462 11.8185 12.1267L11.8185 12.1267L11.8092 12.1453L11.781 12.2015L11.7791 12.2052L11.7763 12.2021L11.7354 12.1544L6.75927 6.34898C6.39985 5.92966 5.76855 5.8811 5.34923 6.24052C4.9299 6.59994 4.88134 7.23124 5.24076 7.65057L10.2168 13.456L10.2257 13.4663C10.2545 13.5 10.2884 13.5396 10.3193 13.5726C11.246 14.5621 12.8679 14.3625 13.5269 13.1777C13.5489 13.1382 13.5722 13.0916 13.592 13.0519L13.592 13.0518L13.5981 13.0397C13.6528 12.9303 13.6657 12.9051 13.6732 12.8915C13.9869 12.3252 14.7478 12.2017 15.2245 12.6398C15.236 12.6503 15.2561 12.6701 15.3427 12.7566L16.9442 14.3581C16.9902 13.6403 16.9984 12.7478 16.9997 11.5853Z" fill="#9F9F9F"/>
<path d="M6 14V13H7V14H6ZM1.6247 18.7809C1.19343 19.1259 0.564141 19.056 0.219131 18.6247C-0.125878 18.1934 -0.055957 17.5641 0.375305 17.2191L1.6247 18.7809ZM5 19V14H7V19H5ZM6 15H1V13H6V15ZM6.6247 14.7809L1.6247 18.7809L0.375305 17.2191L5.3753 13.2191L6.6247 14.7809Z" fill="#9F9F9F"/>
</svg>
