<svg width="28" height="28" viewBox="0 0 28 28" fill="none" xmlns="http://www.w3.org/2000/svg">
<g clip-path="url(#clip0_183_6)">
<path d="M14.0005 3.71411C13.3719 3.71411 12.8577 4.2284 12.8577 4.85697V13.9998C12.8577 14.6284 13.3719 15.1427 14.0005 15.1427C14.6291 15.1427 15.1434 14.6284 15.1434 13.9998V4.85697C15.1434 4.2284 14.6291 3.71411 14.0005 3.71411ZM19.8748 6.98268C19.4291 7.4284 19.4405 8.12554 19.8634 8.57125C21.1548 9.94268 21.9548 11.7713 22.0005 13.7941C22.1034 18.1713 18.4805 21.9427 14.1034 21.9884C9.6348 22.057 6.00051 18.457 6.00051 13.9998C6.00051 11.897 6.81194 9.9884 8.13766 8.55983C8.56051 8.11411 8.56051 7.41697 8.12623 6.98268C7.66909 6.52554 6.92623 6.53697 6.49194 7.00554C4.8348 8.76554 3.7948 11.1084 3.7148 13.7027C3.5548 19.2798 8.09194 24.1027 13.6691 24.2741C19.4977 24.457 24.2862 19.7827 24.2862 13.9884C24.2862 11.2798 23.2348 8.83411 21.5205 7.00554C21.0862 6.53697 20.3319 6.52554 19.8748 6.98268Z" fill="white"/>
</g>
<defs>
<clipPath id="clip0_183_6">
<path d="M0.286133 8.28564C0.286133 3.86736 3.86786 0.285645 8.28613 0.285645H19.7147C24.133 0.285645 27.7147 3.86737 27.7147 8.28564V19.7142C27.7147 24.1325 24.133 27.7142 19.7147 27.7142H8.28613C3.86785 27.7142 0.286133 24.1325 0.286133 19.7142V8.28564Z" fill="white"/>
</clipPath>
</defs>
</svg>
