<svg width="199" height="199" viewBox="0 0 199 199" fill="none" xmlns="http://www.w3.org/2000/svg">
<path d="M158.829 44.862L101.863 20.4481C100.354 19.8013 98.6458 19.8013 97.1365 20.4481L40.1706 44.862L42.1402 49.4578L40.1706 44.862C37.7409 45.9034 36.2789 48.4122 36.5708 51.0395L44.5138 122.527C44.8276 125.35 46.2218 127.943 48.4045 129.762L95.6589 169.141C97.884 170.995 101.116 170.995 103.341 169.141L150.595 129.762C152.778 127.943 154.172 125.35 154.486 122.527L162.429 51.0395C162.721 48.4122 161.259 45.9033 158.829 44.862Z" stroke="#E10000" stroke-width="10" stroke-linecap="round"/>
<path d="M82.8333 84.875C82.8333 82.9894 82.8333 82.0466 83.4191 81.4608C84.0049 80.875 84.9477 80.875 86.8333 80.875H114.167C116.052 80.875 116.995 80.875 117.581 81.4608C118.167 82.0466 118.167 82.9894 118.167 84.875V101.375C118.167 104.203 118.167 105.618 117.288 106.496C116.409 107.375 114.995 107.375 112.167 107.375H88.8333C86.0049 107.375 84.5907 107.375 83.712 106.496C82.8333 105.618 82.8333 104.203 82.8333 101.375V84.875Z" stroke="#E10000" stroke-width="5"/>
<path d="M109.333 78.6667V76.4583C109.333 72.8678 109.333 71.0725 108.454 69.793C108.107 69.2881 107.67 68.8513 107.165 68.5044C105.886 67.625 104.091 67.625 100.5 67.625V67.625C96.9094 67.625 95.1141 67.625 93.8346 68.5044C93.3298 68.8513 92.893 69.2881 92.546 69.793C91.6666 71.0725 91.6666 72.8677 91.6666 76.4583V78.6667" stroke="#E10000" stroke-width="5" stroke-linecap="round"/>
<circle cx="100" cy="93" r="6" fill="#E10000"/>
</svg>
