<svg width="13" height="18" viewBox="0 0 13 18" fill="none" xmlns="http://www.w3.org/2000/svg">
<path d="M8.918 0H0V18H12.128V3.2L8.918 0ZM4.398 15.874C4.39911 16.0004 4.38228 16.1263 4.348 16.248C4.31639 16.3608 4.26041 16.4652 4.184 16.554C4.10042 16.6434 3.99697 16.712 3.882 16.754C3.73555 16.8082 3.58011 16.834 3.424 16.83C3.34517 16.8281 3.26675 16.8181 3.19 16.8C3.10968 16.783 3.03176 16.7561 2.958 16.72C2.88166 16.6817 2.81043 16.634 2.746 16.578C2.67633 16.5201 2.61507 16.4528 2.564 16.378L2.864 16.08C2.93305 16.1801 3.0223 16.2645 3.126 16.328C3.21332 16.3816 3.31353 16.4107 3.416 16.412C3.48444 16.4178 3.55334 16.4091 3.61815 16.3863C3.68296 16.3636 3.74221 16.3273 3.792 16.28C3.88623 16.1499 3.92962 15.9899 3.914 15.83V14.43H2.792V14.03H4.392L4.398 15.874ZM7.062 15.274C7.01066 15.3833 6.93467 15.4791 6.84 15.554C6.74085 15.6306 6.62724 15.6864 6.506 15.718C6.3703 15.754 6.23037 15.7715 6.09 15.77H5.664V16.782H5.166V14.026H6.094C6.23511 14.0248 6.37593 14.0389 6.514 14.068C6.63402 14.0926 6.74771 14.1416 6.848 14.212C6.94126 14.2802 7.0156 14.3711 7.064 14.476C7.11945 14.6019 7.14609 14.7385 7.142 14.876C7.14613 15.0128 7.11948 15.1488 7.064 15.274H7.062ZM9.604 16.506C9.5008 16.6048 9.38007 16.6835 9.248 16.738C9.09397 16.8044 8.92773 16.8378 8.76 16.836C8.59287 16.8376 8.42706 16.8064 8.272 16.744C8.12305 16.6832 7.98975 16.5895 7.882 16.47C7.76642 16.3394 7.67803 16.1871 7.622 16.022C7.49555 15.6272 7.49555 15.2028 7.622 14.808C7.67888 14.6416 7.7679 14.488 7.884 14.356C7.99446 14.2332 8.13118 14.1368 8.284 14.074C8.44232 14.0078 8.61242 13.9745 8.784 13.976C8.94605 13.9712 9.10658 14.0084 9.25 14.084C9.36622 14.1468 9.47212 14.2271 9.564 14.322L9.294 14.626C9.23126 14.5629 9.15988 14.509 9.082 14.466C8.98972 14.4195 8.88728 14.3968 8.784 14.4C8.67919 14.3989 8.57563 14.4229 8.482 14.47C8.38917 14.5179 8.30847 14.5863 8.246 14.67C8.17572 14.7643 8.1235 14.8707 8.092 14.984C8.05423 15.1194 8.03605 15.2595 8.038 15.4C8.02552 15.6615 8.09548 15.9204 8.238 16.14C8.30178 16.2256 8.38572 16.2942 8.48237 16.3395C8.57902 16.3849 8.68538 16.4057 8.792 16.4C8.86321 16.4 8.93402 16.3892 9.002 16.368C9.0618 16.3513 9.11668 16.3204 9.162 16.278V15.678H8.686V15.278H9.606L9.604 16.506ZM11.556 10.2L9.3 7.552L7.7 9.434L10.166 12.34L10.332 12.54H11.55V12.922H0.572V12.546H9.664L7.362 9.832L4.122 6.018L0.572 10.2V0.572H8.696V3.432H11.556V10.2Z" fill="black"/>
</svg>
