<svg width="18" height="18" viewBox="0 0 18 18" fill="none" xmlns="http://www.w3.org/2000/svg">
<path d="M17.6645 2.20219H11.6345V3.33894H13.412V5.13725H11.6345V5.71021H13.412V7.51057H11.6345V8.09931H13.412V9.80239H11.6345V10.4848H13.412V12.1915H11.6345V12.874H13.412V14.5908H11.6345V15.8426H17.6645C17.7595 15.8136 17.839 15.699 17.903 15.5004C17.9589 15.3441 17.9916 15.1801 18 15.014V2.40998C18 2.3122 17.967 2.25363 17.903 2.23275C17.8254 2.21076 17.745 2.20046 17.6645 2.20219ZM16.8825 14.5887H13.9895V12.874H16.882V14.5893L16.8825 14.5887ZM16.8825 12.1915H13.9895V10.4843H16.882L16.8825 12.1915ZM16.8825 9.80188H13.9895V8.10695H16.882V9.80239L16.8825 9.80188ZM16.8825 7.51006H13.9895V5.71174H16.882V7.51006H16.8825ZM16.8825 5.12707H13.9895V3.33995H16.882V5.12911L16.8825 5.12707ZM0 1.92055V16.1299L10.62 18.001V0L0 1.92513V1.92055ZM6.295 12.6667C6.25433 12.5553 6.06483 12.0808 5.7265 11.2432C5.3895 10.4059 5.1865 9.91902 5.1265 9.77948H5.1075L3.969 12.5429L2.4465 12.4385L4.2525 8.99975L2.6 5.56303L4.15 5.48001L5.176 8.1696H5.196L6.355 5.35778L7.959 5.25592L6.049 8.97377L8.019 12.7685L6.295 12.6667Z" fill="black"/>
</svg>
