<svg width="18" height="18" viewBox="0 0 18 18" fill="none" xmlns="http://www.w3.org/2000/svg">
<path d="M17.613 2.5275H11.2065V4.917C11.6087 4.61869 12.0994 4.46393 12.6 4.4775V6.801H14.9055C14.9068 7.41716 14.6637 8.00869 14.2294 8.44579C13.7951 8.88289 13.2052 9.12985 12.589 9.1325C12.0953 9.12302 11.6165 8.9619 11.2175 8.671V10.268H16.254V11.0515H11.2135V12.0215H16.25V12.7955H11.2105V14.5505H17.6175C17.877 14.5505 18 14.414 18 14.1475V2.91C18.008 2.85794 18.0036 2.80473 17.9872 2.75467C17.9708 2.70462 17.9429 2.65913 17.9056 2.62189C17.8684 2.58464 17.8229 2.55669 17.7728 2.54029C17.7228 2.52389 17.6696 2.51951 17.6175 2.5275H17.613ZM12.96 6.417V4.074C13.2665 4.07458 13.5698 4.13575 13.8525 4.25398C14.1353 4.37221 14.3918 4.54518 14.6075 4.76292C14.8232 4.98067 14.9936 5.2389 15.1091 5.52277C15.2246 5.80664 15.2829 6.11054 15.2805 6.417H12.96ZM6.192 6.456C6.16152 6.3216 6.09315 6.19875 5.995 6.102C5.89164 6.01123 5.76718 5.9478 5.633 5.9175C5.46424 5.87222 5.29023 5.84952 5.1155 5.85L4.5755 5.8605V8.1105H4.595C4.80116 8.12252 5.00784 8.12252 5.214 8.1105C5.42629 8.09982 5.63358 8.04228 5.821 7.942C5.93481 7.86312 6.031 7.76145 6.10347 7.64345C6.17594 7.52545 6.22311 7.39368 6.242 7.2565C6.28753 6.97841 6.27045 6.69366 6.192 6.423V6.457V6.456ZM0 1.822V15.281L10.266 17.055V0L0 1.822ZM7.6595 7.887C7.55508 8.17611 7.38754 8.43831 7.16907 8.65454C6.95059 8.87076 6.68667 9.03558 6.3965 9.137C5.80749 9.3196 5.18958 9.39065 4.5745 9.3465V11.913L3.2245 11.7565V4.7065L5.3685 4.5945C5.76493 4.56879 6.16274 4.61452 6.543 4.7295C6.92355 4.83915 7.25026 5.08538 7.4605 5.421C7.69021 5.78239 7.82202 6.1973 7.843 6.625C7.87458 7.05401 7.81195 7.48474 7.6595 7.887Z" fill="black"/>
</svg>
