<svg width="18" height="18" viewBox="0 0 18 18" fill="none" xmlns="http://www.w3.org/2000/svg">
<path d="M18.0005 2.32206V14.7324C18.0019 14.7812 17.9926 14.8296 17.9733 14.8744C17.9541 14.9193 17.9253 14.9593 17.889 14.9919C17.8161 15.0606 17.7191 15.0977 17.619 15.0954H11.2003V13.3724H16.435V12.5904H11.1938V11.6308H16.4305V10.8478H11.2003V9.88027H16.4355V9.10625H11.2003V8.13623H16.4355V7.3537H11.2003V6.39468H16.4355V5.61216H11.2003V4.63313H16.4355V3.88761H11.2003V1.94305H17.6195C17.6697 1.94049 17.7199 1.94917 17.7663 1.96846C17.8128 1.98775 17.8544 2.01716 17.888 2.05456C17.9248 2.08851 17.9539 2.12995 17.9733 2.1761C17.9927 2.22225 18.002 2.27202 18.0005 2.32206ZM10.2378 0.0025001V17.0445L0 15.2724V1.82205L10.2378 0V0.0025001ZM8.69274 5.03364L7.41121 5.11264L6.58918 10.2018H6.57018C6.52968 9.96078 6.37918 9.11825 6.10917 7.67671L5.63016 5.22965L4.42712 5.28965L3.94511 7.67621C3.6641 9.06675 3.5071 9.87628 3.4661 10.1033H3.4546L2.72358 5.41565L1.62355 5.47415L2.80008 11.3868L4.02561 11.4653L4.48662 9.16525C4.75663 7.81522 4.91414 7.0307 4.94764 6.81519H4.98164C5.02764 7.0442 5.17364 7.84572 5.44265 9.22276L5.90366 11.5913L7.2312 11.6698L8.71624 5.03214H8.69024L8.69274 5.03364Z" fill="black"/>
</svg>
