<svg width="14" height="18" viewBox="0 0 14 18" fill="none" xmlns="http://www.w3.org/2000/svg">
<path d="M6.395 9.0035C6.219 8.441 6.2225 7.3535 6.3245 7.3535C6.62 7.3545 6.592 8.65 6.395 9.0035ZM6.335 10.663C6.05704 11.4217 5.72278 12.1586 5.335 12.8675C6.04739 12.5446 6.78759 12.2868 7.5465 12.0975C7.04741 11.7087 6.63481 11.2201 6.335 10.663ZM3.027 15.05C3.027 15.078 3.491 14.86 4.254 13.6365C3.75726 14.0237 3.34053 14.5038 3.027 15.05ZM8.719 5.625H13.5V17.1565C13.5003 17.2673 13.4786 17.3772 13.4363 17.4796C13.394 17.5821 13.3319 17.6752 13.2535 17.7535C13.1752 17.8319 13.0821 17.894 12.9796 17.9363C12.8772 17.9786 12.7673 18.0003 12.6565 18H0.844004C0.733118 18.0003 0.62326 17.9787 0.520745 17.9365C0.41823 17.8942 0.325079 17.8321 0.246647 17.7537C0.168215 17.6753 0.106049 17.5822 0.0637214 17.4797C0.0213938 17.3772 -0.00026031 17.2674 3.72502e-06 17.1565V0.844004C-0.000326322 0.733075 0.0212791 0.623177 0.0635772 0.520629C0.105875 0.418081 0.168031 0.324908 0.24647 0.24647C0.324908 0.168031 0.418081 0.105875 0.520629 0.0635772C0.623177 0.0212791 0.733075 -0.000326322 0.844004 3.72502e-06H7.875V4.7815C7.87566 5.0051 7.96481 5.21934 8.12296 5.3774C8.28112 5.53545 8.49541 5.62448 8.719 5.625ZM8.438 11.665C7.73116 11.2305 7.20006 10.5608 6.938 9.7735C7.096 9.1235 7.346 8.135 7.156 7.5165C7.13136 7.32543 7.04472 7.14771 6.90938 7.0106C6.77403 6.87348 6.59746 6.78454 6.40671 6.75742C6.21597 6.73029 6.0216 6.76647 5.8534 6.86041C5.68519 6.95436 5.55245 7.10088 5.4755 7.2775C5.2995 7.921 5.4615 8.8275 5.7605 9.9845C5.33286 11.0133 4.85341 12.0197 4.324 13C4.3205 13 4.3205 13.0035 4.317 13.0035C3.3645 13.492 1.7295 14.568 2.401 15.394C2.59688 15.6059 2.86867 15.7318 3.157 15.744C3.7865 15.744 4.412 15.111 5.307 13.5715C6.21197 13.2331 7.14022 12.9605 8.0845 12.756C8.77407 13.1493 9.5428 13.3835 10.3345 13.4415C10.5132 13.446 10.6892 13.3978 10.8407 13.3029C10.9921 13.208 11.1123 13.0706 11.1861 12.9078C11.26 12.7451 11.2843 12.5642 11.256 12.3877C11.2277 12.2112 11.148 12.047 11.027 11.9155C10.5385 11.4375 9.118 11.5745 8.4395 11.6625L8.438 11.665ZM13.254 3.6915L9.8085 0.246004C9.72998 0.16772 9.63679 0.105696 9.53426 0.0634834C9.43173 0.0212708 9.32188 -0.000300916 9.211 3.72502e-06H9V4.5H13.5V4.2855C13.4999 4.06274 13.4114 3.84911 13.254 3.6915ZM10.65 12.667C10.794 12.572 10.562 12.2485 9.1455 12.3505C10.45 12.906 10.65 12.667 10.65 12.667Z" fill="black"/>
</svg>
