<svg width="14" height="18" viewBox="0 0 14 18" fill="none" xmlns="http://www.w3.org/2000/svg">
<path d="M14 10V3.00001L11.0504 0H0.235229V18.0001H14V15.0001H13.0168V17.0001H1.21843V1H10.0672V4.00002H13.0168V10H14Z" fill="black"/>
<path d="M6.81728 13.015V14.028H6.10938V11.042H7.28076C7.50552 11.042 7.70392 11.084 7.87657 11.1682C8.04922 11.2522 8.18314 11.372 8.27792 11.527C8.3725 11.6822 8.42009 11.8582 8.42009 12.0552C8.42009 12.3464 8.31764 12.5792 8.11274 12.7534C7.90764 12.9278 7.62645 13.015 7.26896 13.015H6.81728ZM6.81728 12.4594H7.28076C7.41781 12.4594 7.52243 12.4244 7.5944 12.3548C7.66637 12.2852 7.70235 12.1866 7.70235 12.0594C7.70235 11.92 7.66538 11.8086 7.59164 11.7252C7.51751 11.6418 7.41683 11.5994 7.28902 11.598H6.81747V12.4594H6.81728Z" fill="black"/>
<path d="M11.1083 14.0278H10.4045L9.36408 12.1698V14.0278H8.65637V11.0417H9.36408L10.4025 12.8998V11.0417H11.1083V14.0278Z" fill="black"/>
<path d="M13.8871 13.6583C13.7782 13.7813 13.6191 13.8805 13.4093 13.9557C13.1996 14.0309 12.9696 14.0683 12.7195 14.0683C12.335 14.0683 12.0279 13.9487 11.798 13.7095C11.5681 13.4703 11.445 13.1373 11.4289 12.7107L11.4269 12.4523C11.4269 12.1583 11.4781 11.9017 11.5801 11.6821C11.6824 11.4627 11.8285 11.2941 12.0186 11.1757C12.2088 11.0575 12.4288 10.9983 12.6787 10.9983C13.0443 10.9983 13.3284 11.0833 13.5308 11.2535C13.7329 11.4237 13.8509 11.6777 13.8847 12.0155H13.203C13.1788 11.8487 13.1265 11.7297 13.0459 11.6587C12.9653 11.5877 12.8508 11.5521 12.7029 11.5521C12.5256 11.5521 12.3883 11.6287 12.2916 11.7817C12.1948 11.9347 12.1459 12.1535 12.1445 12.4379V12.6183C12.1445 12.9163 12.1944 13.1401 12.2947 13.2897C12.395 13.4395 12.5525 13.5143 12.7674 13.5143C12.9519 13.5143 13.0889 13.4727 13.1788 13.3893V12.9259H12.6868V12.4315H13.8867V13.6583H13.8871Z" fill="black"/>
</svg>
