<svg width="32" height="32" viewBox="0 0 32 32" fill="none" xmlns="http://www.w3.org/2000/svg">
<path d="M15.9999 20.0002L15.9999 19.0002L14.9999 19.0002L14.9999 20.0002L15.9999 20.0002ZM15.6585 24.9921L16.3656 24.285L16.3656 24.285L15.6585 24.9921ZM6.66658 16.0002L5.95948 15.2931L5.25237 16.0002L5.95948 16.7073L6.66658 16.0002ZM15.6585 7.00825L14.9514 6.30114L14.9514 6.30114L15.6585 7.00825ZM15.9999 12.0002L14.9999 12.0002L14.9999 13.0002L15.9999 13.0002L15.9999 12.0002ZM25.3333 19.0002L15.9999 19.0002L15.9999 21.0002L25.3333 21.0002L25.3333 19.0002ZM14.9999 20.0002L14.9999 24.8507L16.9999 24.8507L16.9999 20.0002L14.9999 20.0002ZM16.3656 24.285L7.37369 15.2931L5.95948 16.7073L14.9514 25.6992L16.3656 24.285ZM7.37369 16.7073L16.3656 7.71536L14.9514 6.30114L5.95948 15.2931L7.37369 16.7073ZM14.9999 7.14967L14.9999 12.0002L16.9999 12.0002L16.9999 7.14967L14.9999 7.14967ZM15.9999 13.0002L25.3333 13.0002L25.3333 11.0002L15.9999 11.0002L15.9999 13.0002ZM16.3656 7.71536C15.8616 8.21933 14.9999 7.86239 14.9999 7.14967L16.9999 7.14967C16.9999 6.08059 15.7074 5.54519 14.9514 6.30114L16.3656 7.71536ZM14.9999 24.8507C14.9999 24.1379 15.8616 23.781 16.3656 24.285L14.9514 25.6992C15.7074 26.4551 16.9999 25.9197 16.9999 24.8507L14.9999 24.8507Z" fill="#003399"/>
</svg>
