<svg width="32" height="32" viewBox="0 0 32 32" fill="none" xmlns="http://www.w3.org/2000/svg">
<path d="M16.0001 11.9998V12.9998H17.0001V11.9998H16.0001ZM16.3415 7.00793L15.6344 7.71503L15.6344 7.71503L16.3415 7.00793ZM25.3334 15.9998L26.0405 16.7069L26.7476 15.9998L26.0405 15.2927L25.3334 15.9998ZM16.3415 24.9918L17.0486 25.6989L17.0486 25.6989L16.3415 24.9918ZM16.0001 19.9998H17.0001V18.9998H16.0001V19.9998ZM6.66675 12.9998H16.0001V10.9998H6.66675V12.9998ZM17.0001 11.9998V7.14935H15.0001V11.9998H17.0001ZM15.6344 7.71503L24.6263 16.7069L26.0405 15.2927L17.0486 6.30082L15.6344 7.71503ZM24.6263 15.2927L15.6344 24.2846L17.0486 25.6989L26.0405 16.7069L24.6263 15.2927ZM17.0001 24.8503V19.9998H15.0001V24.8503H17.0001ZM16.0001 18.9998H6.66675V20.9998H16.0001V18.9998ZM15.6344 24.2846C16.1384 23.7807 17.0001 24.1376 17.0001 24.8503H15.0001C15.0001 25.9194 16.2926 26.4548 17.0486 25.6989L15.6344 24.2846ZM17.0001 7.14935C17.0001 7.86206 16.1384 8.21901 15.6344 7.71503L17.0486 6.30082C16.2926 5.54485 15.0001 6.08027 15.0001 7.14935H17.0001Z" fill="#036613"/>
</svg>
