<svg width="32" height="32" viewBox="0 0 32 32" fill="none" xmlns="http://www.w3.org/2000/svg">
<path d="M16.0001 12.0001V13.0001H17.0001V12.0001H16.0001ZM16.3415 7.00817L15.6344 7.71528L15.6344 7.71528L16.3415 7.00817ZM25.3334 16.0001L26.0405 16.7072L26.7476 16.0001L26.0405 15.293L25.3334 16.0001ZM16.3415 24.992L17.0486 25.6991L17.0486 25.6991L16.3415 24.992ZM16.0001 20.0001H17.0001V19.0001H16.0001V20.0001ZM6.66675 13.0001H16.0001V11.0001H6.66675V13.0001ZM17.0001 12.0001V7.14959H15.0001V12.0001H17.0001ZM15.6344 7.71528L24.6263 16.7072L26.0405 15.293L17.0486 6.30106L15.6344 7.71528ZM24.6263 15.293L15.6344 24.2849L17.0486 25.6991L26.0405 16.7072L24.6263 15.293ZM17.0001 24.8506V20.0001H15.0001V24.8506H17.0001ZM16.0001 19.0001H6.66675V21.0001H16.0001V19.0001ZM15.6344 24.2849C16.1384 23.7809 17.0001 24.1379 17.0001 24.8506H15.0001C15.0001 25.9197 16.2926 26.4551 17.0486 25.6991L15.6344 24.2849ZM17.0001 7.14959C17.0001 7.86231 16.1384 8.21925 15.6344 7.71528L17.0486 6.30106C16.2926 5.5451 15.0001 6.08051 15.0001 7.14959H17.0001Z" fill="#F1582C"/>
</svg>
