<svg width="32" height="32" viewBox="0 0 32 32" fill="none" xmlns="http://www.w3.org/2000/svg">
<path d="M15.9999 19.9999L15.9999 18.9999L14.9999 18.9999L14.9999 19.9999L15.9999 19.9999ZM15.6585 24.9918L16.3656 24.2847L16.3656 24.2847L15.6585 24.9918ZM6.66658 15.9999L5.95948 15.2928L5.25237 15.9999L5.95948 16.707L6.66658 15.9999ZM15.6585 7.00801L14.9514 6.3009L14.9514 6.3009L15.6585 7.00801ZM15.9999 11.9999L14.9999 11.9999L14.9999 12.9999L15.9999 12.9999L15.9999 11.9999ZM25.3333 18.9999L15.9999 18.9999L15.9999 20.9999L25.3333 20.9999L25.3333 18.9999ZM14.9999 19.9999L14.9999 24.8504L16.9999 24.8504L16.9999 19.9999L14.9999 19.9999ZM16.3656 24.2847L7.37369 15.2928L5.95948 16.707L14.9514 25.6989L16.3656 24.2847ZM7.37369 16.707L16.3656 7.71511L14.9514 6.3009L5.95948 15.2928L7.37369 16.707ZM14.9999 7.14943L14.9999 11.9999L16.9999 11.9999L16.9999 7.14943L14.9999 7.14943ZM15.9999 12.9999L25.3333 12.9999L25.3333 10.9999L15.9999 10.9999L15.9999 12.9999ZM16.3656 7.71512C15.8616 8.21909 14.9999 7.86215 14.9999 7.14943L16.9999 7.14943C16.9999 6.08035 15.7074 5.54494 14.9514 6.3009L16.3656 7.71512ZM14.9999 24.8504C14.9999 24.1377 15.8616 23.7807 16.3656 24.2847L14.9514 25.6989C15.7074 26.4549 16.9999 25.9195 16.9999 24.8504L14.9999 24.8504Z" fill="#F1582C"/>
</svg>
