<svg width="16" height="16" viewBox="0 0 16 16" fill="none" xmlns="http://www.w3.org/2000/svg">
<path d="M8 10L7.29289 10.7071L8 11.4142L8.70711 10.7071L8 10ZM9 1C9 0.447715 8.55229 2.42698e-07 8 2.18557e-07C7.44772 1.94416e-07 7 0.447715 7 1L9 1ZM2.29289 5.70711L7.29289 10.7071L8.70711 9.29289L3.70711 4.29289L2.29289 5.70711ZM8.70711 10.7071L13.7071 5.70711L12.2929 4.29289L7.29289 9.29289L8.70711 10.7071ZM9 10L9 1L7 1L7 10L9 10Z" fill="#036613"/>
<path d="M1 12L1 13C1 14.1046 1.89543 15 3 15L13 15C14.1046 15 15 14.1046 15 13V12" stroke="#036613" stroke-width="2"/>
</svg>
