<svg width="21" height="20" viewBox="0 0 21 20" fill="none" xmlns="http://www.w3.org/2000/svg">
<path d="M10.5312 0C5.01125 0 0.53125 4.48 0.53125 10C0.53125 15.52 5.01125 20 10.5312 20C16.0513 20 20.5312 15.52 20.5312 10C20.5312 4.48 16.0513 0 10.5312 0ZM10.5312 3C12.1912 3 13.5312 4.34 13.5312 6C13.5312 7.66 12.1912 9 10.5312 9C8.87125 9 7.53125 7.66 7.53125 6C7.53125 4.34 8.87125 3 10.5312 3ZM10.5312 17.2C8.03125 17.2 5.82125 15.92 4.53125 13.98C4.56125 11.99 8.53125 10.9 10.5312 10.9C12.5212 10.9 16.5013 11.99 16.5312 13.98C15.2413 15.92 13.0312 17.2 10.5312 17.2Z" fill="#9F9F9F"/>
</svg>
