<svg width="36" height="29" viewBox="0 0 36 29" fill="none" xmlns="http://www.w3.org/2000/svg">
<path fill-rule="evenodd" clip-rule="evenodd" d="M14 12C14 13.1046 13.1046 14 12 14C10.8954 14 10 13.1046 10 12C10 10.8954 10.8954 10 12 10C13.1046 10 14 10.8954 14 12ZM16 12C16 14.2091 14.2091 16 12 16C9.79086 16 8 14.2091 8 12C8 9.79086 9.79086 8 12 8C14.2091 8 16 9.79086 16 12ZM7 24C7 21.2386 9.23858 19 12 19C14.7614 19 17 21.2386 17 24C17 24.5523 17.4477 25 18 25C18.5523 25 19 24.5523 19 24C19 20.134 15.866 17 12 17C8.13401 17 5 20.134 5 24C5 24.5523 5.44772 25 6 25C6.55228 25 7 24.5523 7 24Z" fill="#9F9F9F"/>
<path fill-rule="evenodd" clip-rule="evenodd" d="M14 12C14 13.1046 13.1046 14 12 14C10.8954 14 10 13.1046 10 12C10 10.8954 10.8954 10 12 10C13.1046 10 14 10.8954 14 12ZM16 12C16 14.2091 14.2091 16 12 16C9.79086 16 8 14.2091 8 12C8 9.79086 9.79086 8 12 8C14.2091 8 16 9.79086 16 12ZM7 24C7 21.2386 9.23858 19 12 19C14.7614 19 17 21.2386 17 24C17 24.5523 17.4477 25 18 25C18.5523 25 19 24.5523 19 24C19 20.134 15.866 17 12 17C8.13401 17 5 20.134 5 24C5 24.5523 5.44772 25 6 25C6.55228 25 7 24.5523 7 24Z" fill="#9F9F9F" fill-opacity="0.3"/>
<path fill-rule="evenodd" clip-rule="evenodd" d="M14 12C14 13.1046 13.1046 14 12 14C10.8954 14 10 13.1046 10 12C10 10.8954 10.8954 10 12 10C13.1046 10 14 10.8954 14 12ZM16 12C16 14.2091 14.2091 16 12 16C9.79086 16 8 14.2091 8 12C8 9.79086 9.79086 8 12 8C14.2091 8 16 9.79086 16 12ZM7 24C7 21.2386 9.23858 19 12 19C14.7614 19 17 21.2386 17 24C17 24.5523 17.4477 25 18 25C18.5523 25 19 24.5523 19 24C19 20.134 15.866 17 12 17C8.13401 17 5 20.134 5 24C5 24.5523 5.44772 25 6 25C6.55228 25 7 24.5523 7 24Z" fill="#9F9F9F" fill-opacity="0.05"/>
<path fill-rule="evenodd" clip-rule="evenodd" d="M26 7C26 8.10457 25.1046 9 24 9C22.8954 9 22 8.10457 22 7C22 5.89543 22.8954 5 24 5C25.1046 5 26 5.89543 26 7ZM28 7C28 9.20914 26.2091 11 24 11C21.7909 11 20 9.20914 20 7C20 4.79086 21.7909 3 24 3C26.2091 3 28 4.79086 28 7ZM19 19C19 16.2386 21.2386 14 24 14C26.7614 14 29 16.2386 29 19C29 19.5523 29.4477 20 30 20C30.5523 20 31 19.5523 31 19C31 15.134 27.866 12 24 12C20.134 12 17 15.134 17 19C17 19.5523 17.4477 20 18 20C18.5523 20 19 19.5523 19 19Z" fill="#9F9F9F"/>
<path fill-rule="evenodd" clip-rule="evenodd" d="M26 7C26 8.10457 25.1046 9 24 9C22.8954 9 22 8.10457 22 7C22 5.89543 22.8954 5 24 5C25.1046 5 26 5.89543 26 7ZM28 7C28 9.20914 26.2091 11 24 11C21.7909 11 20 9.20914 20 7C20 4.79086 21.7909 3 24 3C26.2091 3 28 4.79086 28 7ZM19 19C19 16.2386 21.2386 14 24 14C26.7614 14 29 16.2386 29 19C29 19.5523 29.4477 20 30 20C30.5523 20 31 19.5523 31 19C31 15.134 27.866 12 24 12C20.134 12 17 15.134 17 19C17 19.5523 17.4477 20 18 20C18.5523 20 19 19.5523 19 19Z" fill="#9F9F9F" fill-opacity="0.3"/>
<path fill-rule="evenodd" clip-rule="evenodd" d="M26 7C26 8.10457 25.1046 9 24 9C22.8954 9 22 8.10457 22 7C22 5.89543 22.8954 5 24 5C25.1046 5 26 5.89543 26 7ZM28 7C28 9.20914 26.2091 11 24 11C21.7909 11 20 9.20914 20 7C20 4.79086 21.7909 3 24 3C26.2091 3 28 4.79086 28 7ZM19 19C19 16.2386 21.2386 14 24 14C26.7614 14 29 16.2386 29 19C29 19.5523 29.4477 20 30 20C30.5523 20 31 19.5523 31 19C31 15.134 27.866 12 24 12C20.134 12 17 15.134 17 19C17 19.5523 17.4477 20 18 20C18.5523 20 19 19.5523 19 19Z" fill="#9F9F9F" fill-opacity="0.05"/>
</svg>
